# Blender 4.4.3
# www.blender.org
o test_level
v -8.000000 -0.000001 -8.000000
v 8.000000 -0.000001 -8.000000
v 8.000000 0.000001 8.000000
v -8.000000 0.000001 8.000000
v -8.000000 3.999999 -8.000000
v 8.000000 3.999999 -8.000000
v 8.000000 4.000000 8.000000
v -8.000000 4.000000 8.000000
v 14.000000 1.999999 -8.000000
v 26.000000 1.999999 -8.000000
v 26.000000 2.000001 8.000000
v 14.000000 2.000001 8.000000
v 14.000000 6.000000 -8.000000
v 26.000000 6.000000 -8.000000
v 26.000000 6.000000 8.000000
v 14.000000 6.000000 8.000000
v 8.000000 -0.000000 -3.000000
v 14.000000 2.000000 -3.000000
v 8.000000 0.000000 3.000000
v 14.000000 2.000000 3.000000
v -8.000000 -0.000001 -8.000000
v 8.000000 -0.000001 -8.000000
v 8.000000 3.999999 -8.000000
v -8.000000 3.999999 -8.000000
v -8.000000 0.000001 8.000000
v 8.000000 0.000001 8.000000
v 8.000000 4.000000 8.000000
v -8.000000 4.000000 8.000000
v -8.000000 -0.000001 -8.000000
v -8.000000 0.000001 8.000000
v -8.000000 4.000000 8.000000
v -8.000000 3.999999 -8.000000
v 8.000000 -0.000001 -8.000000
v 8.000000 -0.000000 -3.000000
v 8.000000 4.000000 -3.000000
v 8.000000 3.999999 -8.000000
v 8.000000 0.000000 3.000000
v 8.000000 0.000001 8.000000
v 8.000000 4.000000 8.000000
v 8.000000 4.000000 3.000000
v 14.000000 1.999999 -8.000000
v 26.000000 1.999999 -8.000000
v 26.000000 6.000000 -8.000000
v 14.000000 6.000000 -8.000000
v 14.000000 2.000001 8.000000
v 26.000000 2.000001 8.000000
v 26.000000 6.000000 8.000000
v 14.000000 6.000000 8.000000
v 26.000000 1.999999 -8.000000
v 26.000000 2.000001 8.000000
v 26.000000 6.000000 8.000000
v 26.000000 6.000000 -8.000000
v 14.000000 1.999999 -8.000000
v 14.000000 2.000000 -3.000000
v 14.000000 6.000000 -3.000000
v 14.000000 6.000000 -8.000000
v 14.000000 2.000000 3.000000
v 14.000000 2.000001 8.000000
v 14.000000 6.000000 8.000000
v 14.000000 6.000000 3.000000
v 8.000000 -0.000000 -3.000000
v 14.000000 2.000000 -3.000000
v 14.000000 6.000000 -3.000000
v 8.000000 4.000000 -3.000000
v 8.000000 0.000000 3.000000
v 14.000000 2.000000 3.000000
v 14.000000 6.000000 3.000000
v 8.000000 4.000000 3.000000
v 8.000000 4.000000 -3.000000
v 14.000000 6.000000 -3.000000
v 8.000000 4.000000 3.000000
v 14.000000 6.000000 3.000000
vn -0.0000 1.0000 -0.0000
vn -0.0000 -1.0000 -0.0000
vn -0.3162 0.9487 -0.0000
vn -0.0000 -0.0000 1.0000
vn -0.0000 -0.0000 -1.0000
vn 1.0000 -0.0000 -0.0000
vn -1.0000 -0.0000 -0.0000
vn 0.3162 -0.9487 -0.0000
vt 0.006742 0.006742
vt 0.373541 0.006742
vt 0.373541 0.375644
vt 0.006742 0.375644
vt 0.753823 0.375644
vt 0.387024 0.375644
vt 0.387024 0.006742
vt 0.753823 0.006742
vt 0.006742 0.389127
vt 0.281841 0.389127
vt 0.281841 0.758029
vt 0.006742 0.758029
vt 0.570423 0.758029
vt 0.295324 0.758029
vt 0.295324 0.389127
vt 0.570423 0.389127
vt 0.158563 0.913979
vt 0.158563 0.771513
vt 0.296902 0.771513
vt 0.296902 0.913979
vt 0.583906 0.758029
vt 0.583906 0.389127
vt 0.676132 0.389127
vt 0.676132 0.758029
vt 0.781841 0.389127
vt 0.781841 0.758029
vt 0.689615 0.758029
vt 0.689615 0.389127
vt 0.767306 0.375644
vt 0.767306 0.006742
vt 0.859532 0.006742
vt 0.859532 0.375644
vt 0.512337 0.886795
vt 0.512337 0.771513
vt 0.604562 0.771513
vt 0.604562 0.886795
vt 0.618046 0.886795
vt 0.618046 0.771513
vt 0.710271 0.771513
vt 0.710271 0.886795
vt 0.873015 0.283418
vt 0.873015 0.006742
vt 0.965240 0.006742
vt 0.965240 0.283418
vt 0.993258 0.389127
vt 0.993258 0.665804
vt 0.901033 0.665804
vt 0.901033 0.389127
vt 0.795324 0.758029
vt 0.795324 0.389127
vt 0.887550 0.389127
vt 0.887550 0.758029
vt 0.723754 0.886795
vt 0.723754 0.771513
vt 0.815980 0.771513
vt 0.815980 0.886795
vt 0.829463 0.886795
vt 0.829463 0.771513
vt 0.921689 0.771513
vt 0.921689 0.886795
vt 0.397878 0.771513
vt 0.397878 0.917334
vt 0.310385 0.946498
vt 0.310385 0.800677
vt 0.498854 0.800677
vt 0.498854 0.946498
vt 0.411361 0.917334
vt 0.411361 0.771513
vt 0.006742 0.771513
vt 0.145080 0.771513
vt 0.145080 0.913979
vt 0.006742 0.913979
s 1
f 4/1/1 3/2/1 2/3/1 1/4/1
f 5/5/2 6/6/2 7/7/2 8/8/2
f 12/9/1 11/10/1 10/11/1 9/12/1
f 13/13/2 14/14/2 15/15/2 16/16/2
f 19/17/3 20/18/3 18/19/3 17/20/3
f 21/21/4 22/22/4 23/23/4 24/24/4
f 28/25/5 27/26/5 26/27/5 25/28/5
f 32/29/6 31/30/6 30/31/6 29/32/6
f 33/33/7 34/34/7 35/35/7 36/36/7
f 37/37/7 38/38/7 39/39/7 40/40/7
f 41/41/4 42/42/4 43/43/4 44/44/4
f 48/45/5 47/46/5 46/47/5 45/48/5
f 49/49/7 50/50/7 51/51/7 52/52/7
f 56/53/6 55/54/6 54/55/6 53/56/6
f 60/57/6 59/58/6 58/59/6 57/60/6
f 61/61/4 62/62/4 63/63/4 64/64/4
f 68/65/5 67/66/5 66/67/5 65/68/5
f 71/69/8 69/70/8 70/71/8 72/72/8
