# Blender 4.4.3
# www.blender.org
o Cube.002
v -0.000960 0.442194 -0.623824
v -0.000960 -0.440113 -0.623824
v -0.000960 0.442194 0.621559
v -0.000960 -0.440113 0.621559
v -0.027211 0.442194 -0.623824
v -0.027211 -0.440113 -0.623824
v -0.027211 0.442194 0.621559
v -0.027211 -0.440113 0.621559
v -0.000960 0.387533 0.568837
v -0.000960 0.387533 -0.569288
v -0.000960 -0.382036 0.568837
v -0.000960 -0.382036 -0.569288
v -0.017526 0.387533 0.568837
v -0.017526 0.387533 -0.569288
v -0.017526 -0.382036 0.568837
v -0.017526 -0.382036 -0.569288
vn -0.0000 -0.0000 -1.0000
vn 1.0000 -0.0000 -0.0000
vn -0.0000 -0.0000 1.0000
vn -0.0000 -1.0000 -0.0000
vn -0.0000 1.0000 -0.0000
vt 0.272511 0.000000
vt 0.293589 0.000000
vt 0.293589 0.708463
vt 0.272511 0.708463
vt 0.171501 0.137111
vt 0.171501 0.845575
vt 0.127710 0.801684
vt 0.127710 0.183746
vt 0.341272 0.617938
vt 0.341272 0.000000
vt 0.354574 0.000000
vt 0.354574 0.617938
vt 0.127367 0.166227
vt 0.127367 0.784165
vt 0.085033 0.828056
vt 0.085034 0.119593
vt 0.000000 0.000000
vt 0.043891 0.042334
vt 0.043891 0.956209
vt 0.000000 1.000000
vt 0.367876 0.000000
vt 0.367876 0.617938
vt 0.354574 0.617938
vt 0.354574 0.000000
vt 0.204798 0.042334
vt 0.251432 0.000000
vt 0.251432 1.000000
vt 0.204798 0.956209
vt 0.314668 0.913876
vt 0.314668 0.000000
vt 0.327970 0.000000
vt 0.327970 0.913876
vt 0.251432 0.000000
vt 0.272511 1.000000
vt 0.251432 1.000000
vt 0.293589 0.000000
vt 0.314668 0.708463
vt 0.293589 0.708463
vt 0.341272 0.913876
s 0
f 5/1/1 1/2/1 2/3/1 6/4/1
f 2/5/2 1/6/2 10/7/2 12/8/2
f 12/9/3 10/10/3 14/11/3 16/12/3
f 11/13/2 9/14/2 3/15/2 4/16/2
f 3/17/2 9/18/2 10/19/2 1/20/2
f 9/21/1 11/22/1 15/23/1 13/24/1
f 11/25/2 4/26/2 2/27/2 12/28/2
f 10/29/4 9/30/4 13/31/4 14/32/4
f 7/33/5 3/1/5 1/34/5 5/35/5
f 3/36/3 7/30/3 8/37/3 4/38/3
f 16/32/5 15/31/5 11/10/5 12/39/5
f 2/27/4 4/26/4 8/37/4 6/4/4
