# Blender 4.4.3
# www.blender.org
o Office_Desk
v -0.527740 0.799554 0.939801
v 0.527740 0.799554 0.939801
v -0.527740 0.799554 -0.935306
v 0.527740 0.799554 -0.935306
v -0.527740 0.761120 0.939801
v 0.527740 0.761120 0.939801
v -0.527740 0.761120 -0.935306
v 0.527740 0.761120 -0.935306
v -0.527740 0.799554 0.893314
v 0.527740 0.799554 0.893314
v -0.527740 0.761120 0.893314
v 0.527740 0.761120 0.893314
v 0.527740 0.799554 -0.897808
v 0.527740 0.761120 -0.897808
v -0.527740 0.799554 -0.897808
v -0.527740 0.761120 -0.897808
v -0.527740 -0.000000 0.893314
v -0.527740 -0.000000 0.939801
v 0.527740 -0.000000 0.939801
v 0.527740 -0.000000 -0.897808
v 0.527740 -0.000000 -0.935306
v -0.527740 -0.000000 -0.935306
v 0.527740 -0.000000 0.893314
v -0.527740 -0.000000 -0.897808
vn -0.0000 1.0000 -0.0000
vn -0.0000 -0.0000 1.0000
vn 1.0000 -0.0000 -0.0000
vn -1.0000 -0.0000 -0.0000
vn -0.0000 -0.0000 -1.0000
vn -0.0000 -1.0000 -0.0000
vt 0.419251 0.413109
vt 0.000000 0.413109
vt 0.000000 0.416067
vt 0.419251 0.416067
vt 0.712788 0.838502
vt 0.885834 0.838503
vt 0.885834 0.419251
vt 0.712788 0.419251
vt 0.000000 0.425393
vt 0.005151 0.425393
vt 0.005151 0.419251
vt 0.000000 0.419251
vt 0.178197 0.424658
vt 0.183348 0.424658
vt 0.183348 0.419251
vt 0.178197 0.419251
vt 0.356394 0.838502
vt 0.361545 0.838502
vt 0.361545 0.419251
vt 0.356394 0.419251
vt 0.534591 0.838502
vt 0.539742 0.838502
vt 0.539742 0.419251
vt 0.534591 0.419251
vt 0.178197 0.832361
vt 0.183348 0.832361
vt -0.000000 0.838503
vt 0.005151 0.838503
vt 0.005151 0.833096
vt -0.000000 0.833096
vt 0.043620 0.390331
vt 0.351034 0.390331
vt 0.351034 0.379420
vt 0.043620 0.379420
vt 0.606286 0.256119
vt 0.187035 0.256119
vt 0.187035 0.247727
vt 0.606286 0.247727
vt 0.178197 0.838503
vt 0.183348 0.838503
vt -0.000000 0.996257
vt 0.012707 0.996257
vt 0.012707 0.003086
vt 0.000000 0.003086
vt 0.419251 0.419251
vt 0.826954 0.419251
vt 0.826954 0.000000
vt 0.419251 0.000000
vt 0.727577 0.009714
vt 0.234959 0.009714
vt 0.234959 0.983502
vt 0.727577 0.983502
vt 0.885834 0.838502
vt 0.891976 0.838502
vt 0.891976 0.419251
vt 0.885834 0.419251
vt 0.891976 0.838503
vt 0.897383 0.838503
vt 0.897383 0.419251
vt 0.891976 0.419251
vt 0.025286 0.768183
vt 0.277089 0.768183
vt 0.277089 0.760316
vt 0.025286 0.760316
vt 0.356394 0.424658
vt 0.356394 0.419251
vt 0.826954 0.419251
vt 1.000000 0.419251
vt 1.000000 0.000000
vt 0.826954 -0.000000
vt 0.640746 0.838502
vt 0.640746 0.419251
vt 0.420107 0.838502
vt 0.712788 0.838502
vt 0.712788 0.375441
vt 0.420107 0.375441
vt 0.356394 0.838503
vt 0.356394 0.832361
s 0
f 15/1/1 13/2/1 4/3/1 3/4/1
f 16/5/2 24/6/2 20/7/2 14/8/2
f 13/9/3 14/10/3 8/11/3 4/12/3
f 9/13/4 11/14/4 5/15/4 1/16/4
f 4/17/5 8/18/5 7/19/5 3/20/5
f 1/21/2 5/22/2 6/23/2 2/24/2
f 15/25/4 16/26/4 11/14/4 9/13/4
f 2/27/3 6/28/3 12/29/3 10/30/3
f 14/31/3 20/32/3 21/33/3 8/34/3
f 1/35/1 2/36/1 10/37/1 9/38/1
f 3/39/4 7/40/4 16/26/4 15/25/4
f 10/41/3 12/42/3 14/43/3 13/44/3
f 11/45/6 16/46/6 14/47/6 12/48/6
f 9/49/1 10/50/1 13/51/1 15/52/1
f 24/53/6 22/54/6 21/55/6 20/56/6
f 18/57/6 17/58/6 23/59/6 19/60/6
f 6/61/3 19/62/3 23/63/3 12/64/3
f 11/14/4 17/65/4 18/66/4 5/15/4
f 12/67/5 23/68/5 17/69/5 11/70/5
f 8/18/5 21/71/5 22/72/5 7/19/5
f 5/73/2 18/74/2 19/75/2 6/76/2
f 7/40/4 22/77/4 24/78/4 16/26/4
