# Blender 4.4.3
# www.blender.org
o Cube
v -0.000960 0.634862 -0.433075
v -0.000960 -0.632596 -0.433075
v -0.000960 0.634862 0.434278
v -0.000960 -0.632596 0.434278
v -0.027211 0.634862 -0.433075
v -0.027211 -0.632596 -0.433075
v -0.027211 0.634862 0.434278
v -0.027211 -0.632596 0.434278
v -0.000960 0.580201 0.381557
v -0.000960 0.580201 -0.378539
v -0.000960 -0.574519 0.381557
v -0.000960 -0.574519 -0.378539
v -0.017526 0.580201 0.381557
v -0.017526 0.580201 -0.378539
v -0.017526 -0.574519 0.381557
v -0.017526 -0.574519 -0.378539
vn -0.0000 -0.0000 -1.0000
vn 1.0000 -0.0000 -0.0000
vn -0.0000 -0.0000 1.0000
vn -0.0000 -1.0000 -0.0000
vn -0.0000 1.0000 -0.0000
vt 0.197632 0.000000
vt 0.218343 0.000000
vt 0.218343 1.000000
vt 0.197632 1.000000
vt 0.102224 0.186661
vt 0.148046 0.145065
vt 0.148046 0.829389
vt 0.102224 0.786361
vt 0.000000 1.000000
vt 0.000000 0.000000
vt 0.043028 0.043127
vt 0.043028 0.954178
vt 0.280478 0.911051
vt 0.280478 0.000000
vt 0.293548 0.000000
vt 0.293548 0.911051
vt 0.156035 0.954178
vt 0.156035 0.043127
vt 0.047765 0.187865
vt 0.090891 0.229462
vt 0.090891 0.829162
vt 0.047764 0.872190
vt 0.239055 0.000000
vt 0.259766 0.000000
vt 0.259766 0.684325
vt 0.239055 0.684325
vt 0.306619 0.000000
vt 0.306619 0.911051
vt 0.293548 0.911051
vt 0.293548 0.000000
vt 0.319689 -0.000000
vt 0.319689 0.599701
vt 0.306619 0.599701
vt 0.306619 -0.000000
vt 0.319689 0.599701
vt 0.319689 -0.000000
vt 0.332759 -0.000000
vt 0.332759 0.599701
vt 0.280478 0.000000
vt 0.280478 0.684325
vt 0.218343 0.000000
vt 0.239055 1.000000
vt 0.218343 1.000000
s 0
f 5/1/1 1/2/1 2/3/1 6/4/1
f 11/5/2 4/6/2 2/7/2 12/8/2
f 2/9/2 1/10/2 10/11/2 12/12/2
f 12/13/3 10/14/3 14/15/3 16/16/3
f 11/17/2 9/18/2 3/1/2 4/4/2
f 3/19/2 9/20/2 10/21/2 1/22/2
f 4/23/4 8/24/4 6/25/4 2/26/4
f 9/27/1 11/28/1 15/29/1 13/30/1
f 11/31/5 12/32/5 16/33/5 15/34/5
f 10/35/4 9/36/4 13/37/4 14/38/4
f 7/24/5 3/39/5 1/40/5 5/25/5
f 3/41/3 7/23/3 8/42/3 4/43/3
