# Blender 4.4.3
# www.blender.org
mtllib pc.mtl
o Cube
v -0.385145 0.009015 0.628831
v -0.385145 0.624826 0.628831
v -0.385145 0.009015 0.287905
v -0.385145 0.624826 0.287905
v 0.230666 0.009015 0.628831
v 0.230666 0.624826 0.628831
v 0.230666 0.009015 0.287905
v 0.230666 0.624826 0.287905
vn -1.0000 -0.0000 -0.0000
vn -0.0000 -0.0000 -1.0000
vn 1.0000 -0.0000 -0.0000
vn -0.0000 -0.0000 1.0000
vn -0.0000 -1.0000 -0.0000
vn -0.0000 1.0000 -0.0000
vt 0.550100 0.748217
vt 0.550100 0.998217
vt 0.402639 0.998217
vt 0.402639 0.748217
vt 0.000581 0.998074
vt 0.001558 0.750515
vt 0.251558 0.750515
vt 0.250581 0.998074
vt 0.398748 0.745853
vt 0.398748 0.997780
vt 0.254562 0.997780
vt 0.254562 0.745853
vt 0.250015 0.748047
vt 0.250015 0.998047
vt 0.001953 0.998047
vt 0.001953 0.748047
vt 0.045032 0.781767
vt 0.218733 0.781767
vt 0.218733 0.955468
vt 0.045032 0.955468
s 0
usemtl Office
f 1/1/1 2/2/1 4/3/1 3/4/1
f 3/5/2 4/6/2 8/7/2 7/8/2
f 7/9/3 8/10/3 6/11/3 5/12/3
f 5/13/4 6/14/4 2/15/4 1/16/4
f 3/17/5 7/18/5 5/19/5 1/20/5
f 8/13/6 4/16/6 2/15/6 6/14/6
