# Blender 4.4.3
# www.blender.org
o CRT_Monitor
v -0.146995 0.061983 0.145800
v -0.189679 0.286408 0.145800
v -0.146995 0.061983 -0.145800
v -0.189679 0.286408 -0.145800
v 0.258125 0.073055 0.227179
v 0.187064 0.446675 0.227179
v 0.258125 0.073055 -0.227179
v 0.187064 0.446675 -0.227179
v 0.150326 0.052552 -0.227179
v 0.079265 0.426172 -0.227179
v 0.150326 0.052552 0.227179
v 0.079265 0.426172 0.227179
v 0.100734 0.062982 -0.192630
v 0.038818 0.388524 0.192630
v 0.038818 0.388524 -0.192630
v 0.100734 0.062982 0.192630
v -0.062912 0.049077 -0.061827
v -0.062912 0.049077 0.061827
v 0.069947 0.048972 -0.061806
v 0.069947 0.048972 0.061806
v -0.063015 0.026892 -0.061827
v -0.063015 0.026892 0.061827
v 0.070080 0.027219 -0.061806
v 0.070080 0.027219 0.061806
v -0.154701 0.010490 -0.171613
v -0.154701 0.010490 0.171613
v 0.154954 0.010257 -0.171554
v 0.154954 0.010257 0.171554
v -0.154828 0.000117 -0.171613
v -0.154828 0.000117 0.171613
v 0.154828 -0.000117 -0.171554
v 0.154828 -0.000117 0.171554
vn -0.9824 -0.1868 -0.0000
vn -0.0000 -0.0000 -1.0000
vn 0.9824 0.1868 -0.0000
vn -0.1855 -0.0353 0.9820
vn 0.1868 -0.9824 -0.0000
vn -0.4080 0.9130 -0.0000
vn -0.1868 0.9824 -0.0000
vn -0.2058 -0.9786 -0.0000
vn -0.0000 -0.0000 1.0000
vn -0.5837 -0.1110 -0.8043
vn -0.1855 -0.0353 -0.9820
vn 0.4142 -0.9102 -0.0000
vn -0.6813 0.7320 -0.0000
vn -0.5837 -0.1110 0.8043
vn 0.0002 -0.0000 1.0000
vn -0.0126 -0.9925 0.1213
vn -0.0126 -0.9925 -0.1213
vn -0.1517 -0.9884 -0.0000
vn -0.1761 0.9844 -0.0000
vn -1.0000 0.0046 -0.0000
vn 1.0000 0.0061 -0.0000
vn 0.0002 -0.0000 -1.0000
vn 0.9999 -0.0122 -0.0000
vn 0.1960 0.9806 -0.0000
vn -0.0002 0.9886 -0.1502
vn -0.0002 0.9886 0.1502
vn -0.0008 -1.0000 -0.0000
vn -0.9999 0.0122 -0.0000
vt 0.271010 0.616102
vt 0.315852 0.616102
vt 0.315852 0.660944
vt 0.271010 0.660944
vt 0.316406 0.529297
vt 0.316406 0.740234
vt 0.251379 0.740234
vt 0.251379 0.529297
vt 0.249797 0.526884
vt 0.249797 0.742433
vt 0.001735 0.742433
vt 0.001735 0.526884
vt 0.361663 0.556124
vt 0.361663 0.727105
vt 0.487329 0.697372
vt 0.487329 0.579500
vt 0.295697 0.739048
vt 0.256077 0.739578
vt 0.256077 0.525669
vt 0.295697 0.525138
vt 0.478261 0.712470
vt 0.356959 0.711519
vt 0.356959 0.617527
vt 0.478261 0.617914
vt 0.253906 0.527344
vt 0.316406 0.527344
vt 0.253906 0.740234
vt 0.322284 0.585980
vt 0.354486 0.585980
vt 0.354486 0.722932
vt 0.322284 0.722932
vt 0.255922 0.739533
vt 0.255922 0.529130
vt 0.317774 0.529130
vt 0.317774 0.739533
vt 0.351603 0.569921
vt 0.351603 0.733986
vt 0.319401 0.738658
vt 0.319401 0.529481
vt 0.500084 0.568925
vt 0.500084 0.699495
vt 0.360880 0.732431
vt 0.360880 0.543031
vt 0.313010 0.671617
vt 0.313010 0.608034
vt 0.310784 0.629625
vt 0.310784 0.650026
vt 0.279926 0.538755
vt 0.312128 0.538755
vt 0.312128 0.719670
vt 0.279926 0.719670
vt 0.351814 0.567311
vt 0.351814 0.737274
vt 0.319612 0.740644
vt 0.319612 0.528135
vt 0.424547 0.570463
vt 0.372195 0.580201
vt 0.372152 0.545886
vt 0.424504 0.545727
vt 0.272814 0.615763
vt 0.292204 0.629621
vt 0.272814 0.663888
vt 0.292204 0.650029
vt 0.284042 0.627916
vt 0.284042 0.646124
vt 0.269532 0.662290
vt 0.269532 0.611750
vt 0.367473 0.579831
vt 0.425817 0.579831
vt 0.425817 0.545013
vt 0.367473 0.545013
vt 0.435984 0.579460
vt 0.366667 0.579460
vt 0.366667 0.549632
vt 0.435984 0.549632
vt 0.417568 0.582942
vt 0.371107 0.574300
vt 0.371145 0.552348
vt 0.417606 0.552489
vt 0.300619 0.646121
vt 0.300619 0.627919
vt 0.315128 0.611759
vt 0.315128 0.662281
vt 0.270496 0.606004
vt 0.314111 0.606004
vt 0.314111 0.650683
vt 0.270496 0.650683
vt 0.270269 0.618704
vt 0.270269 0.662354
s 0
f 1/1/1 2/2/1 4/3/1 3/4/1
f 9/5/2 10/6/2 8/7/2 7/8/2
f 7/9/3 8/10/3 6/11/3 5/12/3
f 16/13/4 14/14/4 2/15/4 1/16/4
f 9/17/5 7/18/5 5/19/5 11/20/5
f 15/21/6 4/22/6 2/23/6 14/24/6
f 8/25/7 10/26/7 12/6/7 6/27/7
f 13/28/8 9/29/8 11/30/8 16/31/8
f 5/32/9 6/33/9 12/34/9 11/35/9
f 13/36/10 15/37/10 10/38/10 9/39/10
f 3/40/11 4/41/11 15/42/11 13/43/11
f 13/44/12 16/45/12 20/46/12 19/47/12
f 10/48/13 15/49/13 14/50/13 12/51/13
f 11/52/14 12/53/14 14/54/14 16/55/14
f 20/56/15 18/57/15 22/58/15 24/59/15
f 16/45/16 1/60/16 18/61/16 20/46/16
f 3/62/17 13/44/17 19/47/17 17/63/17
f 1/60/18 3/62/18 17/63/18 18/61/18
f 22/64/19 21/65/19 25/66/19 26/67/19
f 18/68/20 17/69/20 21/70/20 22/71/20
f 19/72/21 20/73/21 24/74/21 23/75/21
f 17/76/22 19/77/22 23/78/22 21/79/22
f 27/28/23 28/31/23 32/31/23 31/28/23
f 23/80/24 24/81/24 28/82/24 27/83/24
f 21/65/25 23/80/25 27/83/25 25/66/25
f 24/81/26 22/64/26 26/67/26 28/82/26
f 29/84/27 31/85/27 32/86/27 30/87/27
f 25/40/22 27/43/22 31/43/22 29/40/22
f 28/13/15 26/16/15 30/16/15 32/13/15
f 26/88/28 25/89/28 29/89/28 30/88/28
