# Blender 4.4.3
# www.blender.org
o Keyboard
v -0.143849 0.038214 0.339866
v -0.143849 0.000000 0.339866
v -0.143849 0.038214 -0.339866
v -0.143849 0.000000 -0.339866
v 0.143849 0.010555 0.339866
v 0.143849 0.000000 0.339866
v 0.143849 0.010555 -0.339866
v 0.143849 0.000000 -0.339866
vn -1.0000 -0.0000 -0.0000
vn -0.0000 -0.0000 -1.0000
vn 1.0000 -0.0000 -0.0000
vn -0.0000 -0.0000 1.0000
vn 0.0957 0.9954 -0.0000
vn -0.0000 -1.0000 -0.0000
vt 0.666039 0.851067
vt 0.666039 0.860023
vt 0.674994 0.860023
vt 0.674994 0.851067
vt 0.657695 0.853667
vt 0.657695 0.864598
vt 0.668626 0.864598
vt 0.668626 0.853667
vt 0.557622 0.857996
vt 0.896558 0.857996
vt 0.896558 0.850731
vt 0.557622 0.850731
vt 0.643683 0.851869
vt 0.643683 0.865274
vt 0.657088 0.865274
vt 0.657088 0.851869
vt 0.898020 0.998440
vt 0.556409 0.998440
vt 0.556409 0.853425
vt 0.898020 0.853425
vt 0.758171 0.977796
vt 0.758171 0.990199
vt 0.770573 0.990199
vt 0.770573 0.977796
s 0
f 1/1/1 3/2/1 4/3/1 2/4/1
f 3/5/2 7/6/2 8/7/2 4/8/2
f 7/9/3 5/10/3 6/11/3 8/12/3
f 5/13/4 1/14/4 2/15/4 6/16/4
f 3/17/5 1/18/5 5/19/5 7/20/5
f 8/21/6 6/22/6 2/23/6 4/24/6
