# Blender 4.4.3
# www.blender.org
o Office_Chair
v -0.028150 0.365911 0.027612
v -0.028155 0.365911 -0.028213
v 0.025997 0.365911 -0.028226
v 0.026002 0.365911 0.027598
v -0.028155 0.097690 -0.028213
v 0.025997 0.097690 -0.028226
v -0.028150 0.149499 0.027612
v -0.028155 0.149499 -0.028213
v 0.025997 0.149499 -0.028226
v 0.026002 0.149499 0.027598
v -0.028150 0.097690 0.027612
v 0.026002 0.097690 0.027598
v 0.012970 0.026755 0.274433
v -0.014995 0.026755 0.274440
v 0.012970 0.000000 0.274433
v -0.014995 0.000000 0.274440
v 0.012843 0.026755 -0.273825
v -0.015123 0.026755 -0.273818
v 0.012843 0.000000 -0.273825
v -0.015123 0.000000 -0.273818
v 0.277751 0.026755 -0.014748
v 0.277753 0.026755 0.014081
v 0.277751 0.000000 -0.014748
v 0.277753 0.000000 0.014081
v -0.275598 0.026755 0.014133
v -0.275600 0.026755 -0.014696
v -0.275598 0.000000 0.014133
v -0.275600 0.000000 -0.014696
v 0.161853 0.373743 -0.264297
v 0.161852 0.373743 0.262540
v -0.141622 0.412329 -0.264195
v -0.141622 0.373743 -0.264195
v -0.141622 0.373743 0.262642
v 0.246075 0.422100 -0.187878
v 0.246075 0.363972 -0.187878
v -0.225845 0.363972 -0.187747
v 0.246075 0.363972 0.185320
v -0.225845 0.422100 0.185451
v -0.225845 0.363972 0.185451
v 0.246075 0.422100 0.185320
v -0.225845 0.422100 -0.187747
v -0.141622 0.412329 0.262642
v 0.161852 0.412329 0.262540
v 0.161853 0.412329 -0.264297
v -0.228471 0.600382 -0.252609
v -0.228471 0.600382 0.253173
v -0.235405 0.817309 -0.252509
v -0.275103 0.808410 -0.252509
v -0.275103 0.808410 0.253273
v -0.163427 0.541012 -0.179244
v -0.222250 0.527826 -0.179244
v -0.300449 0.876679 -0.179118
v -0.222250 0.527826 0.179040
v -0.241626 0.889865 0.179166
v -0.300449 0.876679 0.179166
v -0.163427 0.541012 0.179040
v -0.241626 0.889865 -0.179118
v -0.235405 0.817309 0.253273
v -0.188773 0.609281 0.253173
v -0.188773 0.609281 -0.252609
v -0.190274 0.419104 -0.026727
v -0.190274 0.366381 -0.026727
v -0.190274 0.419104 0.025996
v -0.190274 0.366381 0.025996
v -0.222633 0.419104 0.025996
v -0.222633 0.419104 -0.026727
v -0.222633 0.366381 -0.026727
v -0.222633 0.366381 0.025996
v -0.230079 0.426258 0.025244
v -0.230798 0.424921 -0.027457
v -0.265395 0.385165 -0.025976
v -0.264676 0.386502 0.026725
v -0.234221 0.432744 0.025077
v -0.235692 0.432370 -0.027625
v -0.288377 0.431012 -0.026144
v -0.286905 0.431385 0.026557
v -0.240248 0.664837 0.023600
v -0.241719 0.664463 -0.029101
v -0.294404 0.663104 -0.027621
v -0.292933 0.663478 0.025081
v -0.237948 0.687487 0.023507
v -0.238904 0.688667 -0.029194
v -0.262219 0.735931 -0.027713
v -0.261264 0.734752 0.024988
vn 0.7070 -0.0000 -0.7072
vn 0.6134 0.4922 -0.6177
vn -0.6154 0.4913 -0.6163
vn -0.7072 -0.0000 -0.7070
vn -0.7070 -0.0000 0.7072
vn -0.6156 0.4916 0.6160
vn 0.6139 0.4924 0.6169
vn 0.7072 -0.0000 0.7070
vn -0.3059 -0.9019 0.3049
vn -0.3064 -0.9019 -0.3044
vn 0.3073 -0.9020 -0.3032
vn 0.3069 -0.9021 0.3033
vn -0.5862 0.4188 0.6935
vn 0.5866 0.4188 0.6932
vn -0.5462 -0.6903 -0.4746
vn 0.5459 -0.6903 -0.4749
vn 0.4777 -0.6881 0.5462
vn 0.6923 0.4217 0.5856
vn -0.4759 -0.6897 -0.5458
vn -0.6937 0.4192 -0.5857
vn -0.5460 -0.6898 0.4754
vn 0.5463 -0.6898 0.4751
vn 0.5863 0.4180 -0.6939
vn -0.5866 0.4180 -0.6936
vn 0.4776 -0.6881 -0.5463
vn 0.6922 0.4217 -0.5857
vn -0.4758 -0.6897 0.5458
vn -0.6936 0.4192 0.5858
vn 0.7038 0.6317 0.3249
vn 0.2760 0.5858 0.7621
vn 0.2760 -0.5858 0.7621
vn 0.7038 -0.6317 0.3249
vn -0.2756 0.5857 0.7622
vn -0.2756 -0.5857 0.7622
vn -0.7033 0.6313 -0.3268
vn -0.2740 0.5857 -0.7628
vn -0.2740 -0.5857 -0.7628
vn -0.7033 -0.6313 -0.3268
vn 0.2736 0.5856 -0.7630
vn 0.2736 -0.5856 -0.7630
vn 0.7033 -0.6313 -0.3269
vn -0.7038 0.6317 0.3250
vn -0.7038 -0.6317 0.3250
vn 0.7033 0.6313 -0.3269
vn 0.7765 -0.5511 0.3055
vn 0.6302 -0.1643 0.7588
vn -0.4998 -0.4176 0.7588
vn -0.4670 -0.8298 0.3055
vn 0.4998 0.4172 0.7590
vn -0.6301 0.1639 0.7590
vn 0.4666 0.8293 -0.3074
vn 0.5001 0.4156 -0.7597
vn -0.6296 0.1624 -0.7597
vn -0.7760 0.5507 -0.3074
vn 0.6295 -0.1620 -0.7599
vn -0.5001 -0.4152 -0.7599
vn -0.4666 -0.8293 -0.3075
vn 0.4670 0.8298 0.3056
vn -0.7765 0.5511 0.3056
vn 0.7760 -0.5507 -0.3075
vn -1.0000 -0.0000 -0.0000
vn -0.4167 -0.9089 0.0144
vn -0.0000 1.0000 -0.0000
vn -0.0000 -1.0000 -0.0000
vn -0.0000 -0.0000 -1.0000
vn -0.0000 -0.0000 1.0000
vn -0.0248 -0.0193 -0.9995
vn 0.6398 0.7684 -0.0141
vn 0.0069 0.0134 0.9999
vn -0.0069 -0.0134 -0.9999
vn -0.9993 -0.0258 0.0281
vn -0.8948 -0.4458 0.0258
vn 0.8390 0.5434 -0.0263
vn 0.0248 0.0193 0.9995
vn -0.0329 0.0099 -0.9994
vn 0.0279 0.0071 0.9996
vn -0.0279 -0.0071 -0.9996
vn -0.0329 0.0100 -0.9994
vn -0.9140 0.4050 0.0241
vn -0.9938 0.1086 0.0237
vt 0.807394 0.816875
vt 0.807394 0.783748
vt 0.807396 0.783748
vt 0.807396 0.816875
vt 0.819274 0.816875
vt 0.819274 0.783748
vt 0.819272 0.783748
vt 0.819272 0.816875
vt 0.819274 0.772725
vt 0.807396 0.772725
vt 0.807394 0.772725
vt 0.819272 0.772725
vt 0.871792 0.757632
vt 0.871791 0.757632
vt 0.755139 0.751939
vt 0.755137 0.751939
vt 0.816395 0.751939
vt 0.816395 0.757632
vt 0.810273 0.751939
vt 0.810273 0.757632
vt 0.871792 0.751939
vt 0.871791 0.751939
vt 0.755137 0.757632
vt 0.755139 0.757632
vt 0.810261 0.751939
vt 0.810261 0.757632
vt 0.816407 0.751939
vt 0.816407 0.757632
vt 0.744147 0.843908
vt 0.710555 0.840011
vt 0.710555 0.824622
vt 0.744147 0.820724
vt 0.589517 0.840011
vt 0.589517 0.824622
vt 0.555925 0.843908
vt 0.589517 0.840011
vt 0.589517 0.824622
vt 0.555925 0.820724
vt 0.710555 0.840011
vt 0.598844 0.826939
vt 0.620339 0.846450
vt 0.697790 0.846476
vt 0.719284 0.826973
vt 0.715317 0.768453
vt 0.591325 0.768453
vt 0.591325 0.742574
vt 0.715317 0.742574
vt 0.620339 0.711994
vt 0.598844 0.731694
vt 0.719284 0.731727
vt 0.697790 0.712020
vt 0.591282 0.768453
vt 0.715273 0.768453
vt 0.715273 0.742574
vt 0.591282 0.742574
vt 0.678517 0.714406
vt 0.669044 0.739923
vt 0.654206 0.736597
vt 0.656531 0.709478
vt 0.651614 0.817678
vt 0.636776 0.814352
vt 0.710480 0.764174
vt 0.735552 0.762048
vt 0.735552 0.775611
vt 0.710480 0.784269
vt 0.669044 0.739923
vt 0.654206 0.736597
vt 0.636776 0.814352
vt 0.719641 0.842710
vt 0.746880 0.817372
vt 0.746917 0.740162
vt 0.719688 0.713233
vt 0.588078 0.764174
vt 0.588078 0.784269
vt 0.656531 0.709478
vt 0.562761 0.762048
vt 0.562761 0.775611
vt 0.559159 0.817372
vt 0.586664 0.842710
vt 0.586711 0.713233
vt 0.559196 0.740162
vt 0.589257 0.827183
vt 0.702594 0.827183
vt 0.702594 0.803528
vt 0.589257 0.803528
vt 0.715252 0.715904
vt 0.741702 0.740516
vt 0.741666 0.815516
vt 0.715207 0.841674
vt 0.586082 0.715904
vt 0.586037 0.841674
vt 0.559355 0.740516
vt 0.559319 0.815516
vt 0.000000 0.000000
vt 1.000000 0.000000
vt 1.000000 1.000000
vt 0.000000 1.000000
vt 0.806802 0.727679
vt 0.823509 0.727679
vt 0.823740 0.734055
vt 0.807040 0.733631
vt 0.828397 0.725043
vt 0.801948 0.725043
vt 0.842698 0.728701
vt 0.832317 0.728701
vt 0.832317 0.745613
vt 0.842698 0.745613
vt 0.829698 0.747479
vt 0.818600 0.734726
vt 0.811228 0.749433
vt 0.828128 0.749869
vt 0.801583 0.727961
vt 0.828020 0.728632
vt 0.829929 0.747908
vt 0.818831 0.735155
vt 0.806987 0.748158
vt 0.823687 0.748277
vt 0.823219 0.821820
vt 0.806519 0.821702
vt 0.801498 0.731698
vt 0.827936 0.731885
vt 0.828600 0.749989
vt 0.811700 0.749553
vt 0.809767 0.824004
vt 0.819925 0.846867
vt 0.827405 0.831706
vt 0.826667 0.824440
vt 0.827195 0.848315
vt 0.800758 0.848128
vt 0.809294 0.823884
vt 0.826195 0.824320
vt 0.819619 0.847246
vt 0.827098 0.832084
vt 0.823189 0.844405
vt 0.806490 0.844778
s 1
f 3/1/1 9/2/2 8/3/3 2/4/4
f 1/5/5 7/6/6 10/7/7 4/8/8
f 2/4/4 8/3/3 7/6/6 1/5/5
f 4/8/8 10/7/7 9/2/2 3/1/1
f 11/9/9 5/10/10 6/11/11 12/12/12
f 7/6/6 14/13/13 13/14/14 10/7/7
f 5/10/10 20/15/15 19/16/16 6/11/11
f 12/12/12 24/17/17 22/18/18 10/7/7
f 5/10/10 28/19/19 26/20/20 8/3/3
f 14/13/13 16/21/21 15/22/22 13/14/14
f 10/7/7 13/14/14 15/22/22 12/12/12
f 11/9/9 16/21/21 14/13/13 7/6/6
f 12/12/12 15/22/22 16/21/21 11/9/9
f 17/23/23 19/16/16 20/15/15 18/24/24
f 9/2/2 17/23/23 18/24/24 8/3/3
f 8/3/3 18/24/24 20/15/15 5/10/10
f 6/11/11 19/16/16 17/23/23 9/2/2
f 22/18/18 24/17/17 23/25/25 21/26/26
f 6/11/11 23/25/25 24/17/17 12/12/12
f 10/7/7 22/18/18 21/26/26 9/2/2
f 9/2/2 21/26/26 23/25/25 6/11/11
f 26/20/20 28/19/19 27/27/27 25/28/28
f 11/9/9 27/27/27 28/19/19 5/10/10
f 8/3/3 26/20/20 25/28/28 7/6/6
f 7/6/6 25/28/28 27/27/27 11/9/9
f 40/29/29 43/30/30 30/31/31 37/32/32
f 43/30/30 42/33/33 33/34/34 30/31/31
f 41/35/35 31/36/36 32/37/37 36/38/38
f 31/36/36 44/39/39 29/31/40 32/37/37
f 36/40/38 32/41/37 29/42/40 35/43/41
f 38/44/42 41/45/35 36/46/38 39/47/43
f 44/39/39 34/29/44 35/32/41 29/31/40
f 42/33/33 38/35/42 39/38/43 33/34/34
f 33/48/34 39/49/43 37/50/32 30/51/31
f 34/52/44 40/53/29 37/54/32 35/55/41
f 39/49/43 36/40/38 35/43/41 37/50/32
f 34/43/44 44/42/39 31/41/36 41/40/35
f 40/50/29 34/43/44 41/40/35 38/49/42
f 43/51/30 40/50/29 38/49/42 42/48/33
f 56/56/45 59/57/46 46/58/47 53/59/48
f 59/57/46 58/60/49 49/61/50 46/58/47
f 57/62/51 47/63/52 48/64/53 52/65/54
f 47/60/52 60/66/55 45/67/56 48/68/53
f 52/69/54 48/70/53 45/71/56 51/72/57
f 54/73/58 57/62/51 52/65/54 55/74/59
f 60/66/55 50/56/60 51/75/57 45/67/56
f 58/76/49 54/73/58 55/74/59 49/77/50
f 49/78/50 55/79/59 53/80/48 46/81/47
f 50/82/60 56/83/45 53/84/48 51/85/57
f 55/79/59 52/69/54 51/72/57 53/80/48
f 50/86/60 60/87/55 47/88/52 57/89/51
f 56/90/45 50/86/60 57/89/51 54/91/58
f 59/92/46 56/90/45 54/91/58 58/93/49
s 0
f 61/94/61 62/95/61 64/96/61 63/97/61
f 67/98/62 68/99/62 72/100/62 71/101/62
f 62/98/63 67/98/63 68/99/63 64/99/63
f 63/102/64 65/102/64 66/103/64 61/103/64
f 64/104/65 68/105/65 65/106/65 63/107/65
f 61/107/66 66/106/66 67/105/66 62/104/66
f 70/108/67 71/109/67 75/110/67 74/111/67
f 65/102/68 66/103/68 70/112/68 69/113/68
f 68/105/69 65/106/69 69/114/69 72/115/69
f 66/106/70 67/105/70 71/109/70 70/108/70
f 75/116/71 76/117/71 80/118/71 79/119/71
f 71/101/72 72/100/72 76/117/72 75/116/72
f 69/113/73 70/112/73 74/120/73 73/121/73
f 72/115/74 69/114/74 73/122/74 76/123/74
f 80/124/75 84/125/75 81/126/75 77/127/75
f 73/121/71 77/128/71 78/129/71 74/120/71
f 76/123/76 73/122/76 77/127/76 80/124/76
f 74/111/77 75/110/77 79/130/77 78/131/77
f 78/131/78 79/130/78 83/132/78 82/133/78
f 79/119/79 80/118/79 84/134/79 83/135/79
f 77/97/80 81/97/80 82/94/80 78/94/80
